<svg id="visual" viewBox="0 0 1920 1080" width="1920" height="1080" xmlns="http://www.w3.org/2000/svg" xmlns:xlink="http://www.w3.org/1999/xlink" version="1.1"><rect x="0" y="0" width="1920" height="1080" fill="#1c002f"></rect><path d="M972 1080L979.8 1054.3C987.7 1028.7 1003.3 977.3 1046.8 925.8C1090.3 874.3 1161.7 822.7 1191 771.2C1220.3 719.7 1207.7 668.3 1171.2 617C1134.7 565.7 1074.3 514.3 1091.5 463C1108.7 411.7 1203.3 360.3 1221.8 308.8C1240.3 257.3 1182.7 205.7 1129.8 154.2C1077 102.7 1029 51.3 1005 25.7L981 0L1920 0L1920 25.7C1920 51.3 1920 102.7 1920 154.2C1920 205.7 1920 257.3 1920 308.8C1920 360.3 1920 411.7 1920 463C1920 514.3 1920 565.7 1920 617C1920 668.3 1920 719.7 1920 771.2C1920 822.7 1920 874.3 1920 925.8C1920 977.3 1920 1028.7 1920 1054.3L1920 1080Z" fill="#4a0050"></path><path d="M1392 1080L1353.8 1054.3C1315.7 1028.7 1239.3 977.3 1218.2 925.8C1197 874.3 1231 822.7 1268.8 771.2C1306.7 719.7 1348.3 668.3 1358.7 617C1369 565.7 1348 514.3 1348.8 463C1349.7 411.7 1372.3 360.3 1386.2 308.8C1400 257.3 1405 205.7 1373.2 154.2C1341.3 102.7 1272.7 51.3 1238.3 25.7L1204 0L1920 0L1920 25.7C1920 51.3 1920 102.7 1920 154.2C1920 205.7 1920 257.3 1920 308.8C1920 360.3 1920 411.7 1920 463C1920 514.3 1920 565.7 1920 617C1920 668.3 1920 719.7 1920 771.2C1920 822.7 1920 874.3 1920 925.8C1920 977.3 1920 1028.7 1920 1054.3L1920 1080Z" fill="#590060"></path><path d="M1273 1080L1277.8 1054.3C1282.7 1028.7 1292.3 977.3 1315.3 925.8C1338.3 874.3 1374.7 822.7 1407.7 771.2C1440.7 719.7 1470.3 668.3 1451.5 617C1432.7 565.7 1365.3 514.3 1326.2 463C1287 411.7 1276 360.3 1294.3 308.8C1312.7 257.3 1360.3 205.7 1368.3 154.2C1376.3 102.7 1344.7 51.3 1328.8 25.7L1313 0L1920 0L1920 25.7C1920 51.3 1920 102.7 1920 154.2C1920 205.7 1920 257.3 1920 308.8C1920 360.3 1920 411.7 1920 463C1920 514.3 1920 565.7 1920 617C1920 668.3 1920 719.7 1920 771.2C1920 822.7 1920 874.3 1920 925.8C1920 977.3 1920 1028.7 1920 1054.3L1920 1080Z" fill="#680070"></path><path d="M1531 1080L1540 1054.3C1549 1028.7 1567 977.3 1545.7 925.8C1524.3 874.3 1463.7 822.7 1457.3 771.2C1451 719.7 1499 668.3 1518.3 617C1537.7 565.7 1528.3 514.3 1505.8 463C1483.3 411.7 1447.7 360.3 1433.7 308.8C1419.7 257.3 1427.3 205.7 1440.2 154.2C1453 102.7 1471 51.3 1480 25.7L1489 0L1920 0L1920 25.7C1920 51.3 1920 102.7 1920 154.2C1920 205.7 1920 257.3 1920 308.8C1920 360.3 1920 411.7 1920 463C1920 514.3 1920 565.7 1920 617C1920 668.3 1920 719.7 1920 771.2C1920 822.7 1920 874.3 1920 925.8C1920 977.3 1920 1028.7 1920 1054.3L1920 1080Z" fill="#780080"></path><path d="M1709 1080L1690 1054.3C1671 1028.7 1633 977.3 1622.2 925.8C1611.3 874.3 1627.7 822.7 1646.3 771.2C1665 719.7 1686 668.3 1676.8 617C1667.7 565.7 1628.3 514.3 1617.2 463C1606 411.7 1623 360.3 1625.8 308.8C1628.7 257.3 1617.3 205.7 1613.8 154.2C1610.3 102.7 1614.7 51.3 1616.8 25.7L1619 0L1920 0L1920 25.7C1920 51.3 1920 102.7 1920 154.2C1920 205.7 1920 257.3 1920 308.8C1920 360.3 1920 411.7 1920 463C1920 514.3 1920 565.7 1920 617C1920 668.3 1920 719.7 1920 771.2C1920 822.7 1920 874.3 1920 925.8C1920 977.3 1920 1028.7 1920 1054.3L1920 1080Z" fill="#880092"></path><path d="M1680 1080L1685.7 1054.3C1691.3 1028.7 1702.7 977.3 1701.7 925.8C1700.7 874.3 1687.3 822.7 1700.3 771.2C1713.3 719.7 1752.7 668.3 1756.8 617C1761 565.7 1730 514.3 1735.3 463C1740.7 411.7 1782.3 360.3 1787.5 308.8C1792.7 257.3 1761.3 205.7 1760.3 154.2C1759.3 102.7 1788.7 51.3 1803.3 25.7L1818 0L1920 0L1920 25.7C1920 51.3 1920 102.7 1920 154.2C1920 205.7 1920 257.3 1920 308.8C1920 360.3 1920 411.7 1920 463C1920 514.3 1920 565.7 1920 617C1920 668.3 1920 719.7 1920 771.2C1920 822.7 1920 874.3 1920 925.8C1920 977.3 1920 1028.7 1920 1054.3L1920 1080Z" fill="#9800a3"></path></svg>