<svg id="visual" viewBox="0 0 1920 1080" width="1920" height="1080" xmlns="http://www.w3.org/2000/svg" xmlns:xlink="http://www.w3.org/1999/xlink" version="1.1"><rect x="0" y="0" width="1920" height="1080" fill="#1c002f"></rect><path d="M841 0L821 25.7C801 51.3 761 102.7 720.7 154.2C680.3 205.7 639.7 257.3 636.2 308.8C632.7 360.3 666.3 411.7 719.3 463C772.3 514.3 844.7 565.7 839 617C833.3 668.3 749.7 719.7 754.3 771.2C759 822.7 852 874.3 865.3 925.8C878.7 977.3 812.3 1028.7 779.2 1054.3L746 1080L0 1080L0 1054.3C0 1028.7 0 977.3 0 925.8C0 874.3 0 822.7 0 771.2C0 719.7 0 668.3 0 617C0 565.7 0 514.3 0 463C0 411.7 0 360.3 0 308.8C0 257.3 0 205.7 0 154.2C0 102.7 0 51.3 0 25.7L0 0Z" fill="#9800a3"></path><path d="M737 0L699.3 25.7C661.7 51.3 586.3 102.7 566 154.2C545.7 205.7 580.3 257.3 585.3 308.8C590.3 360.3 565.7 411.7 591.2 463C616.7 514.3 692.3 565.7 695.3 617C698.3 668.3 628.7 719.7 590.7 771.2C552.7 822.7 546.3 874.3 545.2 925.8C544 977.3 548 1028.7 550 1054.3L552 1080L0 1080L0 1054.3C0 1028.7 0 977.3 0 925.8C0 874.3 0 822.7 0 771.2C0 719.7 0 668.3 0 617C0 565.7 0 514.3 0 463C0 411.7 0 360.3 0 308.8C0 257.3 0 205.7 0 154.2C0 102.7 0 51.3 0 25.7L0 0Z" fill="#880092"></path><path d="M493 0L478.7 25.7C464.3 51.3 435.7 102.7 444 154.2C452.3 205.7 497.7 257.3 538.2 308.8C578.7 360.3 614.3 411.7 618.2 463C622 514.3 594 565.7 565.8 617C537.7 668.3 509.3 719.7 510 771.2C510.7 822.7 540.3 874.3 550.8 925.8C561.3 977.3 552.7 1028.7 548.3 1054.3L544 1080L0 1080L0 1054.3C0 1028.7 0 977.3 0 925.8C0 874.3 0 822.7 0 771.2C0 719.7 0 668.3 0 617C0 565.7 0 514.3 0 463C0 411.7 0 360.3 0 308.8C0 257.3 0 205.7 0 154.2C0 102.7 0 51.3 0 25.7L0 0Z" fill="#780080"></path><path d="M344 0L349.5 25.7C355 51.3 366 102.7 369.5 154.2C373 205.7 369 257.3 372.7 308.8C376.3 360.3 387.7 411.7 384.5 463C381.3 514.3 363.7 565.7 380 617C396.3 668.3 446.7 719.7 457 771.2C467.3 822.7 437.7 874.3 431.8 925.8C426 977.3 444 1028.7 453 1054.3L462 1080L0 1080L0 1054.3C0 1028.7 0 977.3 0 925.8C0 874.3 0 822.7 0 771.2C0 719.7 0 668.3 0 617C0 565.7 0 514.3 0 463C0 411.7 0 360.3 0 308.8C0 257.3 0 205.7 0 154.2C0 102.7 0 51.3 0 25.7L0 0Z" fill="#680070"></path><path d="M325 0L323.3 25.7C321.7 51.3 318.3 102.7 311.8 154.2C305.3 205.7 295.7 257.3 292.3 308.8C289 360.3 292 411.7 284.2 463C276.3 514.3 257.7 565.7 248 617C238.3 668.3 237.7 719.7 235.7 771.2C233.7 822.7 230.3 874.3 250.2 925.8C270 977.3 313 1028.7 334.5 1054.3L356 1080L0 1080L0 1054.3C0 1028.7 0 977.3 0 925.8C0 874.3 0 822.7 0 771.2C0 719.7 0 668.3 0 617C0 565.7 0 514.3 0 463C0 411.7 0 360.3 0 308.8C0 257.3 0 205.7 0 154.2C0 102.7 0 51.3 0 25.7L0 0Z" fill="#590060"></path><path d="M98 0L121.8 25.7C145.7 51.3 193.3 102.7 213.7 154.2C234 205.7 227 257.3 203.5 308.8C180 360.3 140 411.7 120.7 463C101.3 514.3 102.7 565.7 101.8 617C101 668.3 98 719.7 104.8 771.2C111.7 822.7 128.3 874.3 130 925.8C131.7 977.3 118.3 1028.7 111.7 1054.3L105 1080L0 1080L0 1054.3C0 1028.7 0 977.3 0 925.8C0 874.3 0 822.7 0 771.2C0 719.7 0 668.3 0 617C0 565.7 0 514.3 0 463C0 411.7 0 360.3 0 308.8C0 257.3 0 205.7 0 154.2C0 102.7 0 51.3 0 25.7L0 0Z" fill="#4a0050"></path></svg>