<svg id="visual" viewBox="0 0 1920 1080" width="1920" height="1080" xmlns="http://www.w3.org/2000/svg" xmlns:xlink="http://www.w3.org/1999/xlink" version="1.1"><rect x="0" y="0" width="1920" height="1080" fill="#1c002f"></rect><path d="M0 804L18.8 803.5C37.7 803 75.3 802 113 806.7C150.7 811.3 188.3 821.7 226 828.8C263.7 836 301.3 840 339 826.7C376.7 813.3 414.3 782.7 452 767.8C489.7 753 527.3 754 565 767C602.7 780 640.3 805 678 813.7C715.7 822.3 753.3 814.7 791 817.2C828.7 819.7 866.3 832.3 903.8 835.8C941.3 839.3 978.7 833.7 1016.2 825.2C1053.7 816.7 1091.3 805.3 1129 807.3C1166.7 809.3 1204.3 824.7 1242 820.5C1279.7 816.3 1317.3 792.7 1355 784.5C1392.7 776.3 1430.3 783.7 1468 791.7C1505.7 799.7 1543.3 808.3 1581 810.3C1618.7 812.3 1656.3 807.7 1694 806.7C1731.7 805.7 1769.3 808.3 1807 800.8C1844.7 793.3 1882.3 775.7 1901.2 766.8L1920 758L1920 1081L1901.2 1081C1882.3 1081 1844.7 1081 1807 1081C1769.3 1081 1731.7 1081 1694 1081C1656.3 1081 1618.7 1081 1581 1081C1543.3 1081 1505.7 1081 1468 1081C1430.3 1081 1392.7 1081 1355 1081C1317.3 1081 1279.7 1081 1242 1081C1204.3 1081 1166.7 1081 1129 1081C1091.3 1081 1053.7 1081 1016.2 1081C978.7 1081 941.3 1081 903.8 1081C866.3 1081 828.7 1081 791 1081C753.3 1081 715.7 1081 678 1081C640.3 1081 602.7 1081 565 1081C527.3 1081 489.7 1081 452 1081C414.3 1081 376.7 1081 339 1081C301.3 1081 263.7 1081 226 1081C188.3 1081 150.7 1081 113 1081C75.3 1081 37.7 1081 18.8 1081L0 1081Z" fill="#9800a3"></path><path d="M0 843L18.8 836.8C37.7 830.7 75.3 818.3 113 815.8C150.7 813.3 188.3 820.7 226 824.7C263.7 828.7 301.3 829.3 339 841.8C376.7 854.3 414.3 878.7 452 884.8C489.7 891 527.3 879 565 873C602.7 867 640.3 867 678 862.2C715.7 857.3 753.3 847.7 791 832.7C828.7 817.7 866.3 797.3 903.8 795.2C941.3 793 978.7 809 1016.2 829.8C1053.7 850.7 1091.3 876.3 1129 885.7C1166.7 895 1204.3 888 1242 874.3C1279.7 860.7 1317.3 840.3 1355 829.8C1392.7 819.3 1430.3 818.7 1468 818.7C1505.7 818.7 1543.3 819.3 1581 827.3C1618.7 835.3 1656.3 850.7 1694 847.7C1731.7 844.7 1769.3 823.3 1807 816.5C1844.7 809.7 1882.3 817.3 1901.2 821.2L1920 825L1920 1081L1901.2 1081C1882.3 1081 1844.7 1081 1807 1081C1769.3 1081 1731.7 1081 1694 1081C1656.3 1081 1618.7 1081 1581 1081C1543.3 1081 1505.7 1081 1468 1081C1430.3 1081 1392.7 1081 1355 1081C1317.3 1081 1279.7 1081 1242 1081C1204.3 1081 1166.7 1081 1129 1081C1091.3 1081 1053.7 1081 1016.2 1081C978.7 1081 941.3 1081 903.8 1081C866.3 1081 828.7 1081 791 1081C753.3 1081 715.7 1081 678 1081C640.3 1081 602.7 1081 565 1081C527.3 1081 489.7 1081 452 1081C414.3 1081 376.7 1081 339 1081C301.3 1081 263.7 1081 226 1081C188.3 1081 150.7 1081 113 1081C75.3 1081 37.7 1081 18.8 1081L0 1081Z" fill="#84008d"></path><path d="M0 917L18.8 909C37.7 901 75.3 885 113 870.7C150.7 856.3 188.3 843.7 226 850C263.7 856.3 301.3 881.7 339 899C376.7 916.3 414.3 925.7 452 913.3C489.7 901 527.3 867 565 854.5C602.7 842 640.3 851 678 865C715.7 879 753.3 898 791 894.2C828.7 890.3 866.3 863.7 903.8 850C941.3 836.3 978.7 835.7 1016.2 837.8C1053.7 840 1091.3 845 1129 854.2C1166.7 863.3 1204.3 876.7 1242 879.2C1279.7 881.7 1317.3 873.3 1355 866.7C1392.7 860 1430.3 855 1468 866.8C1505.7 878.7 1543.3 907.3 1581 912.8C1618.7 918.3 1656.3 900.7 1694 888C1731.7 875.3 1769.3 867.7 1807 862C1844.7 856.3 1882.3 852.7 1901.2 850.8L1920 849L1920 1081L1901.2 1081C1882.3 1081 1844.7 1081 1807 1081C1769.3 1081 1731.7 1081 1694 1081C1656.3 1081 1618.7 1081 1581 1081C1543.3 1081 1505.7 1081 1468 1081C1430.3 1081 1392.7 1081 1355 1081C1317.3 1081 1279.7 1081 1242 1081C1204.3 1081 1166.7 1081 1129 1081C1091.3 1081 1053.7 1081 1016.2 1081C978.7 1081 941.3 1081 903.8 1081C866.3 1081 828.7 1081 791 1081C753.3 1081 715.7 1081 678 1081C640.3 1081 602.7 1081 565 1081C527.3 1081 489.7 1081 452 1081C414.3 1081 376.7 1081 339 1081C301.3 1081 263.7 1081 226 1081C188.3 1081 150.7 1081 113 1081C75.3 1081 37.7 1081 18.8 1081L0 1081Z" fill="#700078"></path><path d="M0 966L18.8 958.5C37.7 951 75.3 936 113 939.2C150.7 942.3 188.3 963.7 226 974.2C263.7 984.7 301.3 984.3 339 974C376.7 963.7 414.3 943.3 452 937.7C489.7 932 527.3 941 565 947.8C602.7 954.7 640.3 959.3 678 956.3C715.7 953.3 753.3 942.7 791 940C828.7 937.3 866.3 942.7 903.8 943.2C941.3 943.7 978.7 939.3 1016.2 943.2C1053.7 947 1091.3 959 1129 955.2C1166.7 951.3 1204.3 931.7 1242 936C1279.7 940.3 1317.3 968.7 1355 969.5C1392.7 970.3 1430.3 943.7 1468 939.2C1505.7 934.7 1543.3 952.3 1581 958.5C1618.7 964.7 1656.3 959.3 1694 952.8C1731.7 946.3 1769.3 938.7 1807 937C1844.7 935.3 1882.3 939.7 1901.2 941.8L1920 944L1920 1081L1901.2 1081C1882.3 1081 1844.7 1081 1807 1081C1769.3 1081 1731.7 1081 1694 1081C1656.3 1081 1618.7 1081 1581 1081C1543.3 1081 1505.7 1081 1468 1081C1430.3 1081 1392.7 1081 1355 1081C1317.3 1081 1279.7 1081 1242 1081C1204.3 1081 1166.7 1081 1129 1081C1091.3 1081 1053.7 1081 1016.2 1081C978.7 1081 941.3 1081 903.8 1081C866.3 1081 828.7 1081 791 1081C753.3 1081 715.7 1081 678 1081C640.3 1081 602.7 1081 565 1081C527.3 1081 489.7 1081 452 1081C414.3 1081 376.7 1081 339 1081C301.3 1081 263.7 1081 226 1081C188.3 1081 150.7 1081 113 1081C75.3 1081 37.7 1081 18.8 1081L0 1081Z" fill="#5d0064"></path><path d="M0 992L18.8 992.2C37.7 992.3 75.3 992.7 113 1001.5C150.7 1010.3 188.3 1027.7 226 1030.2C263.7 1032.7 301.3 1020.3 339 1010C376.7 999.7 414.3 991.3 452 993.2C489.7 995 527.3 1007 565 1010.8C602.7 1014.7 640.3 1010.3 678 1015.3C715.7 1020.3 753.3 1034.7 791 1034C828.7 1033.3 866.3 1017.7 903.8 1009.8C941.3 1002 978.7 1002 1016.2 1003C1053.7 1004 1091.3 1006 1129 1008.2C1166.7 1010.3 1204.3 1012.7 1242 1010.2C1279.7 1007.7 1317.3 1000.3 1355 997.7C1392.7 995 1430.3 997 1468 994.5C1505.7 992 1543.3 985 1581 982.3C1618.7 979.7 1656.3 981.3 1694 992.8C1731.7 1004.3 1769.3 1025.7 1807 1030.2C1844.7 1034.7 1882.3 1022.3 1901.2 1016.2L1920 1010L1920 1081L1901.2 1081C1882.3 1081 1844.7 1081 1807 1081C1769.3 1081 1731.7 1081 1694 1081C1656.3 1081 1618.7 1081 1581 1081C1543.3 1081 1505.7 1081 1468 1081C1430.3 1081 1392.7 1081 1355 1081C1317.3 1081 1279.7 1081 1242 1081C1204.3 1081 1166.7 1081 1129 1081C1091.3 1081 1053.7 1081 1016.2 1081C978.7 1081 941.3 1081 903.8 1081C866.3 1081 828.7 1081 791 1081C753.3 1081 715.7 1081 678 1081C640.3 1081 602.7 1081 565 1081C527.3 1081 489.7 1081 452 1081C414.3 1081 376.7 1081 339 1081C301.3 1081 263.7 1081 226 1081C188.3 1081 150.7 1081 113 1081C75.3 1081 37.7 1081 18.8 1081L0 1081Z" fill="#4a0050"></path></svg>